HIERARCHY
ROOT Hips
{
 OFFSET 0.000000 0.000000 0.000000
 CHANNELS 6 Xposition Yposition Zposition Yrotation Xrotation Zrotation
 JOINT Chest
 {
  OFFSET 0.000000 9.581000 -0.001100
  CHANNELS 3 Yrotation Xrotation Zrotation
  JOINT Chest2
  {
   OFFSET 0.000000 9.561100 0.002200
   CHANNELS 3 Yrotation Xrotation Zrotation
   JOINT Chest3
   {
    OFFSET 0.000000 9.521100 0.000000
    CHANNELS 3 Yrotation Xrotation Zrotation
    JOINT Chest4
    {
     OFFSET 0.000000 9.511400 0.000000
     CHANNELS 3 Yrotation Xrotation Zrotation
     JOINT Neck
     {
      OFFSET 0.000000 14.375100 0.000000
      CHANNELS 3 Yrotation Xrotation Zrotation
      JOINT Head
      {
       OFFSET 0.000000 8.901200 0.004600
       CHANNELS 3 Yrotation Xrotation Zrotation
       End Site
       {
        OFFSET 0.000000 16.962200 0.002400
       }
      }
     }
     JOINT RightCollar
     {
      OFFSET -2.920100 9.518800 0.000000
      CHANNELS 3 Yrotation Xrotation Zrotation
      JOINT RightShoulder
      {
       OFFSET -13.664500 0.000000 0.000000
       CHANNELS 3 Yrotation Xrotation Zrotation
       JOINT RightElbow
       {
        OFFSET 0.000000 -29.999200 0.000000
        CHANNELS 3 Yrotation Xrotation Zrotation
        JOINT RightWrist
        {
         OFFSET 0.000000 -24.253600 0.000000
         CHANNELS 3 Yrotation Xrotation Zrotation
         End Site
         {
          OFFSET 0.000000 -17.918900 0.000000
         }
        }
       }
      }
     }
     JOINT LeftCollar
     {
      OFFSET 2.920100 9.518800 0.000000
      CHANNELS 3 Yrotation Xrotation Zrotation
      JOINT LeftShoulder
      {
       OFFSET 13.664500 0.000000 0.000000
       CHANNELS 3 Yrotation Xrotation Zrotation
       JOINT LeftElbow
       {
        OFFSET 0.000000 -29.999200 0.000000
        CHANNELS 3 Yrotation Xrotation Zrotation
        JOINT LeftWrist
        {
         OFFSET 0.000000 -24.253600 0.000000
         CHANNELS 3 Yrotation Xrotation Zrotation
         End Site
         {
          OFFSET 0.000000 -17.918900 0.000000
         }
        }
       }
      }
     }
    }
   }
  }
 }
 JOINT RightHip
 {
  OFFSET -7.797300 0.005300 0.000500
  CHANNELS 3 Yrotation Xrotation Zrotation
  JOINT RightKnee
  {
   OFFSET 0.000000 -40.663400 -0.000500
   CHANNELS 3 Yrotation Xrotation Zrotation
   JOINT RightAnkle
   {
    OFFSET 0.000000 -39.523700 -0.000900
    CHANNELS 3 Yrotation Xrotation Zrotation
    JOINT RightToe
    {
     OFFSET 0.000000 -6.418000 14.485300
     CHANNELS 3 Yrotation Xrotation Zrotation
     End Site
     {
      OFFSET 0.000000 -1.465200 6.326400
     }
    }
   }
  }
 }
 JOINT LeftHip
 {
  OFFSET 7.797300 0.005300 0.000500
  CHANNELS 3 Yrotation Xrotation Zrotation
  JOINT LeftKnee
  {
   OFFSET 0.000000 -40.663400 -0.000500
   CHANNELS 3 Yrotation Xrotation Zrotation
   JOINT LeftAnkle
   {
    OFFSET 0.000000 -39.523700 -0.000900
    CHANNELS 3 Yrotation Xrotation Zrotation
    JOINT LeftToe
    {
     OFFSET 0.000000 -6.418000 14.485300
     CHANNELS 3 Yrotation Xrotation Zrotation
     End Site
     {
      OFFSET 0.000000 -1.465200 6.326400
     }
    }
   }
  }
 }
}
MOTION
Frames: 7
Frame Time: 0.008333
0.000000 86.422400 0.000000 0.000000 -5.767877 0.000000 0.000000 11.653817 0.000000 0.000000 -5.885947 0.000000 0.000000 -0.000000 0.000000 0.000000 -0.000000 0.000000 0.000000 12.528835 0.000000 0.000000 0.711642 0.000000 0.000000 -0.000000 0.000000 0.000000 0.000000 -90.000000 0.000000 -2.309062 0.000000 0.000000 2.309062 0.000000 0.000000 -0.000000 0.000000 0.000000 -0.000000 90.000000 0.000000 -2.309062 0.000000 0.000000 2.309062 0.000000 0.000000 8.520406 0.000000 0.000000 1.905762 0.000000 -0.000000 -4.658285 0.000000 0.000000 -0.000000 0.000000 0.000000 8.520406 0.000000 0.000000 1.905762 0.000000 -0.000000 -4.658285 0.000000 0.000000 -0.000000 0.000000
-22.134917 126.412378 73.963196 -176.963862 -28.084915 -3.123814 -3.992011 20.630768 0.585035 -0.526385 2.692197 0.158412 -0.856704 4.398309 0.246027 -3.400502 17.621958 0.598191 -6.418557 18.994074 -1.184738 -6.651881 -5.455765 0.200119 -3.232007 -12.637421 -8.076401 3.177605 -4.898178 2.610035 92.399363 -47.986986 -71.650271 7.818617 -31.161867 -59.698945 -5.602247 -8.060166 4.131977 8.470077 -9.696029 3.923534 -77.293499 -51.675671 82.685520 -32.786985 -28.190626 49.530346 0.067168 -58.846467 3.476453 -34.711651 69.891588 -32.759381 27.929429 36.735422 20.992971 0.020186 -0.007764 0.008943 -9.901091 -48.652863 -3.382221 38.601393 76.945280 28.164314 1.706291 -1.602093 8.674766 -0.000511 -0.001094 -0.000226
-22.132017 126.414353 73.966554 -177.055588 -28.142676 -3.165668 -4.049681 20.649392 0.560710 -0.532874 2.698895 0.158311 -0.867184 4.408581 0.245738 -3.438502 17.636012 0.590714 -5.904607 19.039983 -1.208751 -6.075321 -5.437731 0.057186 -3.304389 -12.706900 -7.958597 3.163968 -5.009518 2.649680 92.314903 -48.004949 -71.527899 7.794936 -31.162493 -59.678511 -5.601453 -8.081160 4.133051 8.497617 -9.802415 3.865276 -76.976727 -51.616206 82.461258 -32.764142 -28.276014 49.345052 0.215768 -58.761647 3.455677 -34.713621 69.858396 -32.648002 27.922611 36.695664 20.955351 0.011400 -0.001427 0.005051 -9.868333 -48.595480 -3.306640 38.659025 76.955506 28.260060 1.709987 -1.608310 8.684622 -0.012396 -0.005324 -0.005492
-22.127579 126.415694 73.972542 -177.164559 -28.193970 -3.215287 -4.082948 20.657077 0.553177 -0.537881 2.702931 0.158004 -0.875286 4.414734 0.245135 -3.468832 17.643647 0.583613 -5.300287 19.093059 -1.247921 -5.399870 -5.414557 -0.122176 -3.389322 -12.755430 -7.828354 3.149030 -5.132895 2.691004 92.235364 -48.020368 -71.399672 7.757362 -31.159364 -59.628881 -5.630960 -8.095430 4.145009 8.567303 -9.859181 3.803960 -76.683703 -51.543898 82.206100 -32.792628 -28.319352 49.206603 0.309773 -58.685032 3.504932 -34.681762 69.812699 -32.514692 27.911444 36.675410 20.907555 0.009517 -0.006842 0.004216 -9.829998 -48.536855 -3.206217 38.733935 76.967413 28.396704 1.696720 -1.632227 8.682435 -0.006780 -0.001655 -0.003004
-22.123141 126.417469 73.978918 -177.280025 -28.250724 -3.264623 -4.103246 20.660483 0.548905 -0.541121 2.703981 0.157233 -0.880581 4.416342 0.243756 -3.490084 17.644273 0.575364 -4.626188 19.154052 -1.296693 -4.651397 -5.382530 -0.327031 -3.486726 -12.775647 -7.683536 3.140562 -5.261332 2.732666 92.144709 -48.036618 -71.265510 7.704925 -31.150972 -59.553716 -5.699993 -8.105910 4.172729 8.669074 -9.861585 3.732749 -76.438653 -51.393621 82.026573 -32.790530 -28.362315 49.047799 0.402715 -58.600447 3.565444 -34.717730 69.760977 -32.448945 27.880803 36.633539 20.849018 0.003807 -0.008698 0.001686 -9.784006 -48.471795 -3.109248 38.894321 76.970819 28.649695 1.654694 -1.658918 8.618783 0.011165 0.006923 0.004947
-22.120508 126.419494 73.985714 -177.394121 -28.310152 -3.302243 -4.120267 20.651399 0.534367 -0.542567 2.701432 0.155820 -0.883115 4.412407 0.241444 -3.502999 17.636185 0.565028 -3.910911 19.227596 -1.346101 -3.864247 -5.333428 -0.541297 -3.592220 -12.758921 -7.528014 3.144381 -5.383660 2.773953 92.037464 -48.066374 -71.137825 7.632420 -31.132117 -59.452124 -5.803114 -8.102720 4.215920 8.774663 -9.830058 3.640777 -76.206854 -51.187999 81.868865 -32.795758 -28.418697 48.924456 0.512219 -58.512567 3.608034 -34.762605 69.716645 -32.394034 27.831389 36.577247 20.781949 -0.000016 -0.006040 -0.000007 -9.737998 -48.404566 -3.016203 38.923939 76.980688 28.738901 1.651303 -1.676081 8.587463 0.015777 0.011246 0.006992
-22.121202 126.421690 73.992783 -177.508466 -28.371992 -3.314959 -4.132522 20.628809 0.497204 -0.542013 2.695586 0.153753 -0.882399 4.403250 0.238086 -3.505701 17.620307 0.552538 -3.183712 19.322007 -1.384019 -3.072756 -5.255589 -0.745813 -3.704284 -12.709569 -7.364426 3.163198 -5.486326 2.814039 91.912164 -48.123841 -71.029444 7.536952 -31.104098 -59.312765 -5.930715 -8.077006 4.275454 8.847716 -9.799973 3.524153 -75.937902 -50.944104 81.705648 -32.804173 -28.516711 48.847705 0.584078 -58.436338 3.671755 -34.793348 69.685800 -32.367049 27.804489 36.537237 20.718106 0.005728 -0.014247 0.002537 -9.686822 -48.339702 -2.944734 38.923347 76.992676 28.781827 1.638146 -1.700936 8.572637 0.040615 0.020289 0.018001
